<svg xmlns="http://www.w3.org/2000/svg" viewBox="0 0 80 80" id="CeilingLamp">
  <path d="M74 11H43V6a1 1 0 0 0-1-1h-4a1 1 0 0 0-1 1v5H6a1 1 0 0 0-1 1v4a1 1 0 0 0 1 1h9v30.101c-2.28.465-4 2.485-4 4.899v1.796l-5.919 13.81A.999.999 0 0 0 6 69h5v1c0 2.757 2.243 5 5 5s5-2.243 5-5v-1h5a1.001 1.001 0 0 0 .919-1.394L21 53.796V52a5.008 5.008 0 0 0-4-4.899V17h22v10.101c-2.28.465-4 2.485-4 4.899v1.796l-5.919 13.81A.999.999 0 0 0 30 49h5v1c0 2.757 2.243 5 5 5s5-2.243 5-5v-1h5a1.001 1.001 0 0 0 .919-1.394L45 33.796V32a5.008 5.008 0 0 0-4-4.899V17h22v30.101c-2.28.465-4 2.485-4 4.899v1.796l-5.919 13.81A.999.999 0 0 0 54 69h5v1c0 2.757 2.243 5 5 5s5-2.243 5-5v-1h5a1.001 1.001 0 0 0 .919-1.394L69 53.796V52a5.008 5.008 0 0 0-4-4.899V17h9a1 1 0 0 0 1-1v-4a1 1 0 0 0-1-1zM39 7h2v4h-2V7zM19 70c0 1.654-1.346 3-3 3s-3-1.346-3-3v-1h6v1zm.34-15 5.143 12H7.517l5.142-12h6.682zM19 52v1h-6v-1c0-1.654 1.346-3 3-3s3 1.346 3 3zm24-2c0 1.654-1.346 3-3 3s-3-1.346-3-3v-1h6v1zm.34-15 5.143 12H31.517l5.142-12h6.682zM43 32v1h-6v-1c0-1.654 1.346-3 3-3s3 1.346 3 3zm24 38c0 1.654-1.346 3-3 3s-3-1.346-3-3v-1h6v1zm.34-15 5.143 12H55.517l5.142-12h6.682zM67 52v1h-6v-1c0-1.654 1.346-3 3-3s3 1.346 3 3zm6-37H7v-2h66v2z" fill="#1f1f1f" class="color000000 svgShape"></path>
</svg>
