<svg xmlns="http://www.w3.org/2000/svg" fill="none" viewBox="0 0 24 24" id="mail">
  <path fill="#8c8c8c" fill-rule="evenodd" d="M8.445 3.75c-1.367 0-2.47 0-3.337.117-.9.12-1.658.38-2.26.981-.602.602-.86 1.36-.981 2.26-.117.867-.117 1.97-.117 3.337v3.11c0 1.367 0 2.47.117 3.337.12.9.38 1.658.981 2.26.602.602 1.36.86 2.26.982.867.116 1.97.116 3.337.116h7.11c1.367 0 2.47 0 3.337-.116.9-.122 1.658-.38 2.26-.982.602-.602.86-1.36.982-2.26.116-.867.116-1.97.116-3.337v-3.11c0-1.367 0-2.47-.116-3.337-.122-.9-.38-1.658-.982-2.26-.602-.602-1.36-.86-2.26-.981-.867-.117-1.97-.117-3.337-.117h-7.11ZM3.91 5.909c.277-.277.665-.457 1.4-.556.754-.101 1.756-.103 3.191-.103h7c1.435 0 2.436.002 3.192.103.734.099 1.122.28 1.399.556.144.144.263.32.357.558l-2.384 1.59c-1.586 1.056-2.727 1.816-3.692 2.32-.949.496-1.667.711-2.396.72-.728.01-1.451-.188-2.412-.66-.977-.48-2.136-1.212-3.748-2.23L3.467 6.724c.104-.377.25-.623.442-.815Zm-.637 2.466 1.78 1.124c1.567.99 2.793 1.764 3.85 2.284 1.082.531 2.045.827 3.093.814 1.048-.013 2.004-.332 3.072-.89 1.044-.546 2.25-1.35 3.793-2.379l1.856-1.237c.033.638.034 1.42.034 2.409v3c0 1.435-.002 2.437-.103 3.192-.099.734-.28 1.122-.556 1.399-.277.277-.665.457-1.4.556-.755.101-1.756.103-3.191.103h-7c-1.435 0-2.437-.002-3.192-.103-.734-.099-1.122-.28-1.399-.556-.277-.277-.457-.665-.556-1.4-.101-.754-.103-1.756-.103-3.191v-3c0-.847 0-1.542.022-2.125Z" clip-rule="evenodd" class="color292d32 svgShape"></path>
</svg>
